<svg xmlns="http://www.w3.org/2000/svg" width="15.893" height="15.338" viewBox="0 0 15.893 15.338">
  <g id="EXITのベクター素材1" transform="translate(0 -8.934)">
    <path id="パス_751" data-name="パス 751" d="M315.667,37.194a1.261,1.261,0,1,0-1.261-1.261A1.261,1.261,0,0,0,315.667,37.194Z" transform="translate(-304.646 -24.94)" fill="#39465a"/>
    <path id="パス_752" data-name="パス 752" d="M234.555,135.86l-.836-1.257a2.336,2.336,0,0,0-.786-.719l-1.639-.918a1.389,1.389,0,0,0-.813-.191l-.784.107a1.168,1.168,0,0,0-.746.417l-1.493,1.589-1.368.5a.518.518,0,0,0-.316.64l.006.02a.519.519,0,0,0,.612.352l1.114-.257a2.331,2.331,0,0,0,.778-.338l.775-.521.274,2.081a.7.7,0,0,1-.088.441l-2.321,4.031a.6.6,0,0,0,.219.821l.02.012a.6.6,0,0,0,.8-.175l2.594-3.71.786,1.569a1.164,1.164,0,0,0,.228.312l1.743,1.7a.589.589,0,0,0,.8.022l.028-.024a.589.589,0,0,0,.05-.836l-1.472-1.64-.8-2.895,0,0-.23-2.264.811.365,1.3,1.364a.481.481,0,0,0,.622.065l.013-.009A.481.481,0,0,0,234.555,135.86Z" transform="translate(-218.742 -119.988)" fill="#39465a"/>
    <path id="パス_753" data-name="パス 753" d="M4.008,11.794,1.344,9.974H8.156V8.934H0V22.453H1.344l2.664,1.82v-1.82H7.257v-1.04H4.008Z" fill="#39465a"/>
  </g>
</svg>
