<svg xmlns="http://www.w3.org/2000/svg" width="19.407" height="11.972" viewBox="0 0 19.407 11.972">
  <g id="人物アイコン_チーム" data-name="人物アイコン　チーム" transform="translate(0.001 -98.078)">
    <path id="パス_747" data-name="パス 747" d="M5.592,159.247c0-.03-.012-.058-.012-.088V158.9a1.091,1.091,0,0,1,.06-.36,6.9,6.9,0,0,0,.95-1.878,5.928,5.928,0,0,1-.637-2.451,5.479,5.479,0,0,1,.036-.59,2.285,2.285,0,0,0-1.673-.714,2.538,2.538,0,0,0-2.43,2.8,5.756,5.756,0,0,0,1.108,2.838,1.123,1.123,0,0,1,.059.36v.259a.826.826,0,0,1-.482.751l-1.758.718a1.382,1.382,0,0,0-.781,1.006L0,162.02a.724.724,0,0,0,.722.779H3.6l.118-1.514.008-.041a2.478,2.478,0,0,1,1.4-1.807Z" transform="translate(0 -52.75)" fill="#394b5a"/>
    <path id="パス_748" data-name="パス 748" d="M344.675,161.633a1.38,1.38,0,0,0-.78-1.006l-1.76-.718a.825.825,0,0,1-.481-.751V158.9a1.093,1.093,0,0,1,.06-.36,5.758,5.758,0,0,0,1.107-2.838,2.538,2.538,0,0,0-2.432-2.8,2.285,2.285,0,0,0-1.673.715,5.3,5.3,0,0,1,.036.589,5.937,5.937,0,0,1-.636,2.451,6.877,6.877,0,0,0,.951,1.879,1.124,1.124,0,0,1,.06.36v.259c0,.03-.01.058-.013.088l.436.178a2.493,2.493,0,0,1,1.434,1.819l.007.041.117,1.515h2.875a.724.724,0,0,0,.721-.779Z" transform="translate(-325.301 -52.75)" fill="#394b5a"/>
    <path id="パス_749" data-name="パス 749" d="M125.856,107.422l-2.129-.87a1,1,0,0,1-.582-.909v-.314a1.318,1.318,0,0,1,.073-.436,6.964,6.964,0,0,0,1.339-3.434c0-2.059-1.317-3.382-2.941-3.382s-2.941,1.324-2.941,3.382a6.961,6.961,0,0,0,1.34,3.434,1.349,1.349,0,0,1,.073.436v.314a1,1,0,0,1-.583.909l-2.129.87a1.666,1.666,0,0,0-.944,1.217l-.11,1.41h10.588l-.108-1.41A1.671,1.671,0,0,0,125.856,107.422Z" transform="translate(-111.913)" fill="#394b5a"/>
  </g>
</svg>
