<svg xmlns="http://www.w3.org/2000/svg" width="13.764" height="15.194" viewBox="0 0 13.764 15.194">
  <g id="人物アイコン" transform="translate(-24.092 0.001)">
    <path id="パス_750" data-name="パス 750" d="M34.18,10.535c-.592-.221-1.455-.868-1.455-1.27V8.209a4.466,4.466,0,0,0,.757-2.029c.361-.129.567-.335.824-1.236.274-.96-.412-.928-.412-.928C34.449,2.18,33.718.454,32.5.581c-.844-1.476-3.669.337-4.554.211a2,2,0,0,0,.211.886,4.71,4.71,0,0,0-.1,2.339c-.05,0-.67.006-.407.928.257.9.463,1.107.824,1.236a4.458,4.458,0,0,0,.757,2.029V9.265c0,.4-.917,1.08-1.455,1.27-1.112.392-3.844,1.517-3.668,3.627.042.506,2.825,1.031,6.874,1.031s6.831-.525,6.874-1.031C38.024,12.05,35.285,10.948,34.18,10.535Z" transform="translate(0 0)" fill="#39465a"/>
  </g>
</svg>
